PathFileType	4	(X/Y/Z)	 s04c0101.trc
DataRate	CameraRate	NumFrames	NumMarkers	Units	OrigDataRate	OrigDataStartFrame	OrigNumFrames
200	200	4	51	mm	200	1001	2000
Frame#	Time	racr			lacr			c7			jug			rlel			rdr			llel			ldr			s2			lic			ric			lasi			rasi			rpsi			lpsi			rgt			lgt			rth1			rth2			rth3			rth4			rlfc			rmfc			rsh1			rsh2			rsh3			rsh4			rlmal			rmmal			rcal			rtoe			rmt5			lth1			lth2			lth4			lth3			llfc			lmfc			lsh1			lsh2			lsh3			lsh4			llmal			lmmal			lcal			ltoe			lmt1			lmt5			SBIKE			LBIKE			RBIKE			
		X1	Y1	Z1	X2	Y2	Z2	X3	Y3	Z3	X4	Y4	Z4	X5	Y5	Z5	X6	Y6	Z6	X7	Y7	Z7	X8	Y8	Z8	X9	Y9	Z9	X10	Y10	Z10	X11	Y11	Z11	X12	Y12	Z12	X13	Y13	Z13	X14	Y14	Z14	X15	Y15	Z15	X16	Y16	Z16	X17	Y17	Z17	X18	Y18	Z18	X19	Y19	Z19	X20	Y20	Z20	X21	Y21	Z21	X22	Y22	Z22	X23	Y23	Z23	X24	Y24	Z24	X25	Y25	Z25	X26	Y26	Z26	X27	Y27	Z27	X28	Y28	Z28	X29	Y29	Z29	X30	Y30	Z30	X31	Y31	Z31	X32	Y32	Z32	X33	Y33	Z33	X34	Y34	Z34	X35	Y35	Z35	X36	Y36	Z36	X37	Y37	Z37	X38	Y38	Z38	X39	Y39	Z39	X40	Y40	Z40	X41	Y41	Z41	X42	Y42	Z42	X43	Y43	Z43	X44	Y44	Z44	X45	Y45	Z45	X46	Y46	Z46	X47	Y47	Z47	X48	Y48	Z48	X49	Y49	Z49	X50	Y50	Z50	X51	Y51	Z51	
1001	5.0050	478.809707	1404.859625	-124.046561	509.660163	1397.627733	-379.984967	466.541006	1458.945945	-259.489378	433.702172	1306.406867	-263.457985	466.661293	1103.754845	-1.258212	688.563025	919.786337	-82.852554	512.549535	1134.778166	-532.178918	702.132272	916.977684	-453.095094	-66.406032	1173.297398	-291.412988	94.292220	1199.790038	-447.674456	72.119700	1210.395312	-125.365939	134.731084	1160.628283	-395.906483	113.616748	1183.803413	-115.368029	-50.229871	1221.441590	-249.919854	-44.079846	1218.369060	-326.481145	42.165998	1149.733162	-102.942477	59.460969	1086.283919	-458.137807	169.981646	1062.366535	-82.635699	255.535403	1038.181281	-81.571655	317.478058	980.337330	-73.273924	271.963952	1065.600213	-100.787265	415.562554	879.369989	-87.287064	410.602761	856.587006	-203.056217	318.053128	803.466355	-74.351327	267.448287	732.190852	-95.733040	188.559747	702.046913	-112.045949	292.511665	710.207765	-115.259411	80.816733	596.316739	-131.057209	114.696887	587.680060	-211.778485	13.661317	608.693682	-180.070557	240.837486	410.284792	-145.738980	168.099602	435.470081	-99.202290	109.546896	999.398319	-471.741379	176.925124	944.520511	-472.963190	206.192146	966.202571	-468.311098	208.965025	861.749671	-466.982087	290.985468	718.427610	-449.205118	312.319772	696.724030	-335.958165	292.002376	591.343660	-469.964208	301.495388	507.552589	-449.939662	270.788203	424.375791	-452.343930	327.399652	507.171673	-419.278035	252.360406	277.481248	-451.701334	239.778425	277.574605	-364.871408	169.880092	257.703773	-420.159388	469.748555	231.082024	-391.095105	391.730060	213.850574	-350.909443	405.245343	198.284483	-460.650355	-179.103559	941.236153	-279.498968	-4.238221	85.428091	-483.944019	-15.733087	80.473743	-83.329912	
1002	5.0100	478.417488	1405.329764	-122.766112	510.280151	1399.362985	-378.303894	466.390755	1460.083842	-258.657894	434.273510	1307.421356	-263.307541	465.565162	1103.755876	-1.547429	689.089906	921.065046	-82.673472	516.119576	1137.111914	-531.330627	703.023760	916.593797	-452.812156	-65.635058	1174.770496	-293.644404	95.869632	1200.539641	-448.466120	70.862733	1213.202518	-126.493892	135.371954	1160.931467	-396.322307	112.308323	1186.695671	-115.977203	-49.882119	1223.361575	-252.470702	-44.035115	1220.206122	-328.434864	41.815780	1153.387060	-103.791684	59.318204	1086.732981	-459.131668	170.531886	1067.878089	-83.226862	256.837671	1045.036751	-82.826418	319.939829	988.547886	-74.259079	272.745150	1072.715867	-102.316868	420.137273	889.210532	-88.722772	415.492209	865.744372	-203.678818	322.985777	813.027842	-75.491466	272.594586	741.226303	-97.218585	194.160211	710.618510	-112.578257	298.007758	719.312434	-115.799442	87.759809	603.500892	-131.648373	121.335958	595.182946	-211.955010	20.356640	615.479436	-180.146880	248.262582	418.328795	-145.835370	175.975787	443.460488	-99.221862	106.773411	999.244454	-472.945431	172.604066	942.530169	-474.727066	202.450042	963.426182	-470.296663	202.577999	858.885348	-468.976420	282.061949	713.423385	-451.214215	302.820265	692.427590	-338.059876	283.311469	586.303541	-471.531786	293.383699	502.516933	-451.295770	263.122518	419.201161	-453.190263	319.360589	502.446274	-420.600549	245.543346	272.337195	-451.800799	233.702305	272.240953	-364.871831	163.232642	253.478000	-419.963920	462.786952	222.391208	-391.347166	384.567537	206.256956	-351.027862	397.653405	190.586219	-460.859479	-179.074643	941.361063	-279.488876	-4.229689	85.456677	-483.947435	-15.722143	80.535497	-83.344018	
1003	5.0150	478.091810	1405.463398	-121.469418	510.895383	1400.953773	-376.564724	466.343624	1461.077556	-257.751356	434.723201	1308.350557	-263.252949	463.881907	1103.588911	-1.328983	689.427945	922.341404	-82.421588	519.523341	1139.307154	-530.422877	703.034703	915.775182	-451.834214	-65.376212	1176.407076	-295.619384	97.454835	1201.302938	-449.316363	69.527639	1215.943666	-127.638206	136.115791	1161.196281	-396.929752	110.792734	1189.495778	-116.212627	-48.378672	1225.015928	-255.716487	-42.881624	1221.707634	-330.961549	41.182299	1156.987481	-104.545761	58.974884	1087.379058	-460.078581	171.495248	1073.385315	-84.367726	258.191944	1052.199592	-83.944595	322.314913	996.935802	-75.234950	273.455940	1080.041896	-103.878582	424.529518	899.073802	-89.664681	419.649836	875.972655	-206.603584	327.883704	822.628927	-76.611362	278.475624	750.418416	-96.802304	199.641303	719.101491	-112.726353	303.712566	728.220806	-115.870575	94.812147	610.213457	-131.870065	128.315182	602.079182	-212.070389	27.277709	621.663966	-179.942462	256.776606	426.130192	-145.897299	184.511373	451.288389	-99.365830	103.746275	999.391057	-473.830655	168.220707	941.051917	-476.464876	198.585858	961.285612	-472.353344	196.138090	856.816803	-470.700725	273.200294	709.142528	-452.787166	294.411602	688.638902	-339.295018	274.497926	581.685446	-472.952406	285.105385	498.022205	-452.323783	255.172659	414.617496	-453.894740	311.151691	498.230878	-421.780481	238.499466	267.808282	-451.727895	227.047197	267.580063	-364.836202	156.282894	249.942953	-419.600154	455.441435	214.027555	-391.737611	377.032052	199.068701	-351.230650	389.667093	183.483661	-461.116076	-179.005075	941.468248	-279.653054	-4.229360	85.501180	-483.961339	-15.690877	80.583969	-83.366341	
1004	5.0200	477.735887	1405.450769	-120.097999	511.592447	1402.243197	-374.853665	466.343119	1461.862419	-256.837479	435.175105	1309.082843	-263.107699	462.068492	1103.163940	-1.414309	689.323860	923.415417	-81.966393	522.680050	1141.437055	-529.605564	703.360264	915.269476	-451.508909	-65.239682	1177.823152	-297.322276	99.018810	1202.200971	-450.162524	68.098995	1218.507700	-128.770231	136.847267	1161.530650	-397.609147	109.286659	1191.924011	-117.296240	-49.389257	1227.462816	-256.898008	-42.401296	1223.309554	-332.811342	40.754507	1160.700498	-105.154421	58.443838	1088.287648	-461.043106	172.544693	1078.968352	-85.430087	259.490390	1059.541004	-85.054915	324.610909	1005.390841	-76.263976	274.151893	1087.376942	-105.543033	428.708696	909.122975	-90.634626	424.206837	885.829140	-206.524984	332.800351	831.928312	-77.639313	283.933698	759.104782	-97.833798	205.598894	727.002985	-113.215959	309.494734	737.210745	-116.796332	102.181136	616.544799	-131.897940	135.725027	608.532647	-212.678203	34.242674	627.424081	-179.657148	265.674803	433.662260	-145.888914	193.336705	458.338080	-99.392286	100.763486	999.820858	-474.512055	163.787369	940.024031	-478.086286	194.764666	959.519091	-474.362605	189.889160	855.113357	-472.263698	264.321663	705.483842	-454.436607	286.215736	685.311686	-340.511323	265.749926	577.568453	-474.251503	276.676835	494.052000	-453.256519	247.012105	410.499305	-454.432439	302.878927	494.412864	-422.854974	231.214582	264.126402	-451.628332	220.153385	263.553792	-364.722870	149.003515	247.156626	-419.171763	447.714302	206.147263	-392.085794	369.086333	192.748642	-351.301638	381.294331	176.749319	-461.312425	-179.026221	941.498024	-279.926570	-4.211517	85.560945	-484.002178	-15.670079	80.619807	-83.381749	
